<svg data-v-423bf9ae="" xmlns="http://www.w3.org/2000/svg" viewBox="0 0 221.9567334366366 60" class="font"><!----><!----><!----><g data-v-423bf9ae="" id="4a0c59ce-f73c-4fd1-b63e-9713ce12cb0b" fill="white" transform="matrix(6.179196834564209,0,0,6.179196834564209,-0.3707549571990967,-61.606597900390625)"><path d="M4.63 10.18L7.04 10.18L5.40 16.55L5.39 16.55L5.39 16.55Q5.10 17.74 4.66 18.42L4.66 18.42L4.66 18.42Q4.23 19.10 3.55 19.39L3.55 19.39L3.55 19.39Q2.87 19.68 1.81 19.68L1.81 19.68L1.81 19.68Q0.97 19.68 0.24 19.47L0.24 19.47L0.35 18.17L1.86 17.99L1.86 17.99Q2.28 17.93 2.51 17.82L2.51 17.82L2.51 17.82Q2.73 17.71 2.85 17.47L2.85 17.47L2.85 17.47Q2.97 17.23 3.07 16.76L3.07 16.76L3.12 16.55L1.69 16.55L0.06 10.18L2.46 10.18L3.47 14.39L3.61 14.39L4.63 10.18ZM11.09 9.98L11.09 9.98Q12.70 9.98 13.43 10.54L13.43 10.54L13.43 10.54Q14.15 11.09 14.15 12.32L14.15 12.32L14.15 17.18L12.94 17.18L12.32 16.48L12.32 16.48Q11.26 17.37 9.91 17.37L9.91 17.37L9.91 17.37Q8.67 17.37 8.10 16.82L8.10 16.82L8.10 16.82Q7.53 16.27 7.53 15.06L7.53 15.06L7.53 15.06Q7.53 14.17 7.88 13.68L7.88 13.68L7.88 13.68Q8.22 13.19 9.03 12.98L9.03 12.98L9.03 12.98Q9.84 12.77 11.33 12.77L11.33 12.77L11.69 12.77L11.69 11.89L11.69 11.89Q11.40 11.80 10.82 11.80L10.82 11.80L10.82 11.80Q9.56 11.80 8.15 12.17L8.15 12.17L7.85 10.44L7.85 10.44Q9.31 9.98 11.09 9.98L11.09 9.98ZM10.70 15.68L10.70 15.68Q11.27 15.68 11.48 15.55L11.48 15.55L11.48 15.55Q11.69 15.43 11.69 15.08L11.69 15.08L11.69 14.06L10.81 14.06L10.81 14.06Q10.23 14.06 10.02 14.19L10.02 14.19L10.02 14.19Q9.80 14.32 9.80 14.69L9.80 14.69L9.80 15.68L10.70 15.68ZM15.46 12.26L15.46 12.26Q15.46 11.07 16.18 10.52L16.18 10.52L16.18 10.52Q16.91 9.97 18.47 9.97L18.47 9.97L18.47 9.97Q19.96 9.97 21.32 10.28L21.32 10.28L21.03 11.98L21.03 11.98Q20.36 11.80 19.38 11.80L19.38 11.80L19.38 11.80Q18.63 11.80 18.10 11.93L18.10 11.93L18.10 12.71L18.10 12.71Q19.49 12.87 20.25 13.13L20.25 13.13L20.25 13.13Q21.01 13.40 21.34 13.85L21.34 13.85L21.34 13.85Q21.67 14.31 21.67 15.05L21.67 15.05L21.67 15.05Q21.67 16.28 20.87 16.84L20.87 16.84L20.87 16.84Q20.06 17.39 18.28 17.39L18.28 17.39L18.28 17.39Q17.51 17.39 16.74 17.27L16.74 17.27L16.74 17.27Q15.97 17.15 15.34 16.93L15.34 16.93L15.67 15.13L15.67 15.13Q16.70 15.55 17.92 15.55L17.92 15.55L17.92 15.55Q18.35 15.55 19.03 15.43L19.03 15.43L19.03 14.62L19.03 14.62Q17.54 14.45 16.79 14.20L16.79 14.20L16.79 14.20Q16.04 13.96 15.75 13.52L15.75 13.52L15.75 13.52Q15.46 13.08 15.46 12.26L15.46 12.26ZM26.08 9.98L26.08 9.98Q27.69 9.98 28.42 10.54L28.42 10.54L28.42 10.54Q29.15 11.09 29.15 12.32L29.15 12.32L29.15 17.18L27.93 17.18L27.31 16.48L27.31 16.48Q26.25 17.37 24.91 17.37L24.91 17.37L24.91 17.37Q23.66 17.37 23.09 16.82L23.09 16.82L23.09 16.82Q22.53 16.27 22.53 15.06L22.53 15.06L22.53 15.06Q22.53 14.17 22.87 13.68L22.87 13.68L22.87 13.68Q23.21 13.19 24.02 12.98L24.02 12.98L24.02 12.98Q24.84 12.77 26.32 12.77L26.32 12.77L26.68 12.77L26.68 11.89L26.68 11.89Q26.39 11.80 25.82 11.80L25.82 11.80L25.82 11.80Q24.56 11.80 23.14 12.17L23.14 12.17L22.85 10.44L22.85 10.44Q24.30 9.98 26.08 9.98L26.08 9.98ZM25.69 15.68L25.69 15.68Q26.26 15.68 26.47 15.55L26.47 15.55L26.47 15.55Q26.68 15.43 26.68 15.08L26.68 15.08L26.68 14.06L25.80 14.06L25.80 14.06Q25.23 14.06 25.01 14.19L25.01 14.19L25.01 14.19Q24.79 14.32 24.79 14.69L24.79 14.69L24.79 15.68L25.69 15.68ZM33.46 17.37L33.46 17.37Q32.38 17.37 31.72 17.00L31.72 17.00L31.72 17.00Q31.05 16.63 30.74 15.82L30.74 15.82L30.74 15.82Q30.44 15.01 30.44 13.68L30.44 13.68L30.44 13.68Q30.44 12.35 30.74 11.54L30.74 11.54L30.74 11.54Q31.05 10.72 31.71 10.35L31.71 10.35L31.71 10.35Q32.37 9.98 33.46 9.98L33.46 9.98L33.46 9.98Q34.08 9.98 34.78 10.07L34.78 10.07L34.78 10.07Q35.48 10.15 35.83 10.26L35.83 10.26L35.62 12.00L35.62 12.00Q34.93 11.80 34.09 11.80L34.09 11.80L34.09 11.80Q33.53 11.80 33.30 12.05L33.30 12.05L33.30 12.05Q33.07 12.29 33.07 12.87L33.07 12.87L33.07 15.47L33.07 15.47Q33.40 15.55 33.96 15.55L33.96 15.55L33.96 15.55Q34.86 15.55 35.76 15.19L35.76 15.19L35.98 16.91L35.98 16.91Q34.85 17.37 33.46 17.37L33.46 17.37Z"></path></g><!----><!----></svg>